<svg class="logo logo--light" xmlns="http://www.w3.org/2000/svg" x="0px" y="0px" viewBox="0 0 76 32" aria-labelledby="logo" role="img"><title id="logo">Etch</title><g class="logo__e"><path class="logo__e-t" fill="#F06" d="M0 4L0 20 16 4z"></path><path class="logo__e-b" fill="#F06" d="M0 12L0 28 16 28z"></path><path class="logo__e-m" fill="#F66" d="M0 12L0 28 16 12z"></path></g><g class="logo__t"><path class="logo__t-t" fill="#F06" d="M20 4H28V20H20z"></path><path class="logo__t-b" fill="#F06" d="M20 12L20 28 36 28z"></path><path class="logo__t-m" fill="#F66" d="M20 12L20 28 36 12z"></path></g><g class="logo__c"><path class="logo__c-b" fill="#F06" d="M40 12L40 28 56 28z"></path><path class="logo__c-m" fill="#F66" d="M40 12L40 28 56 12z"></path></g><g class="logo__h"><path class="logo__h-t" fill="#F06" d="M60 4H68V20H60z"></path><path class="logo__h-r" fill="#F06" d="M72 12L60 12 60 16 76 32 76 16z"></path><path class="logo__h-l" fill="#F66" d="M60 12L60 32 76 16 72 12z"></path></g></svg>
