<?xml version="1.0" encoding="UTF-8"?>
<svg width="606px" height="363px" viewBox="0 0 606 363" version="1.1" xmlns="http://www.w3.org/2000/svg" xmlns:xlink="http://www.w3.org/1999/xlink">
    <!-- Generator: Sketch 56.2 (81672) - https://sketch.com -->
    <title>Group 7</title>
    <desc>Created with Sketch.</desc>
    <g id="Page-1" stroke="none" stroke-width="1" fill="none" fill-rule="evenodd">
        <g id="Desktop-HD" transform="translate(-33.000000, -681.000000)">
            <g id="Group-7" transform="translate(33.000000, 681.000000)">
                <path d="M525.046719,180.242087 C514.187235,170.638641 500.644957,162.700741 485.294709,154.309981 C412.206066,114.347366 346.640911,-39.8995263 243.983211,9.74006618 C198.037446,31.9582482 175.128717,82.3600004 139.995779,116.772738 C98.3774768,157.538364 1.61025967,198.410201 0.0122475286,265.899271 C-0.827583671,301.382301 41.6772065,360.752561 80.2744487,360.796913 L471.274194,361 C487.77921,353.771738 504.587498,346.346224 517.989804,334.299899 C543.208069,311.620686 554.755748,273.582729 552.784478,239.948491 C551.151472,212.001855 540.980184,194.32862 525.046719,180.242087" id="Fill-143" fill="#EB9DBC"></path>
                <path d="M525.75525,279 C525.75525,279 463.624149,244.83031 476.84624,186 C476.84624,186 485.117276,205.575511 502.006386,214.386123 C502.006386,214.386123 537.057072,244.714871 525.75525,279" id="Fill-144" fill="#E5186A"></path>
                <path d="M606,277 C606,277 603.840503,319.067164 548.343747,310.963291 C548.343747,310.963291 543.548735,296.433317 569.776176,288.183965 C573.921018,286.88062 578.286453,286.712485 582.593837,287.17277 C588.155123,287.766609 597.582605,286.886583 606,277" id="Fill-145" fill="#E5186A"></path>
                <path d="M582,194 C582,194 508.752486,236.201211 536.124657,297 C536.124657,297 550.257092,294.055675 563.554797,274.928071 C572.33105,262.312538 576.504697,247.087741 576.458324,231.684322 C576.435137,222.941242 577.524922,210.157595 582,194" id="Fill-146" fill="#E5186A"></path>
                <path d="M499.56756,264.502607 C499.56756,264.502607 480.173708,247.469778 455,273.338488 C455,273.338488 489.052402,267.922648 485.640198,285.625777 C485.640198,285.625777 486.951691,309.389488 504.662654,318 C504.662654,318 526.458976,280.479451 499.56756,264.502607" id="Fill-147" fill="#E5186A"></path>
                <path d="M499.174038,362 L498.916802,361.974376 C498.285403,361.838106 497.887856,361.218483 498.028167,360.589542 C501.161774,346.156516 510.305359,334.568865 519.133244,323.362072 C525.63431,315.126442 532.345841,306.610119 536.71886,296.965195 C539.139221,291.641328 540.893105,285.913308 542.576834,280.372806 L543.184848,278.40096 C550.03669,256.117822 558.303332,234.010554 567.762616,212.694121 C568.019853,212.105945 568.709714,211.839227 569.306035,212.100121 C569.890663,212.359851 570.159592,213.047027 569.902355,213.636367 C560.478149,234.867777 552.246584,256.887692 545.418127,279.082313 L544.821807,281.051829 C543.103,286.662214 541.32573,292.462445 538.846907,297.923748 C534.356962,307.827235 527.55189,316.456536 520.980669,324.801648 C511.90724,336.306605 503.336591,347.173304 500.308217,361.082212 C500.191291,361.628459 499.711896,362 499.174038,362" id="Fill-148" fill="#231F20"></path>
                <path d="M511.166064,363 L511.025874,362.990685 C510.383335,362.912671 509.927716,362.331646 510.009494,361.692401 C512.124031,344.629567 522.801862,321.729693 538.444768,312.89903 C545.010349,309.188149 552.533897,307.361236 559.80043,305.592542 C569.193182,303.305698 578.071904,301.145772 585.081421,295.272636 C585.572087,294.859281 586.308086,294.923322 586.728657,295.414691 C587.137546,295.906059 587.079133,296.640784 586.588467,297.055303 C579.158379,303.278918 569.602071,305.60535 560.349508,307.854933 C553.234849,309.585203 545.886538,311.374856 539.589656,314.926217 C524.624337,323.380785 514.367077,345.4784 512.322634,361.977674 C512.252539,362.568015 511.75019,363 511.166064,363" id="Fill-149" fill="#231F20"></path>
                <path d="M509.572089,342 C509.02985,342 508.545297,341.619812 508.441464,341.069235 C506.457101,331.160002 509.583626,320.965627 512.537096,313.191475 C513.275464,311.255761 514.036906,309.328161 514.821421,307.400561 C517.451856,300.828406 520.174586,294.032543 521.212916,287.006017 C522.851169,276.02113 520.243808,264.436983 514.071517,255.224375 C510.045106,249.223661 504.565034,244.198919 499.258017,239.341088 C497.262117,237.509694 495.185458,235.616867 493.224169,233.690426 C483.74076,224.416385 478.895223,216.024427 478.006874,207.2801 C477.937652,206.643749 478.399132,206.073466 479.033667,206.008556 C479.656664,205.929737 480.233514,206.404972 480.302736,207.042482 C481.1334,215.216528 485.759734,223.155273 494.827811,232.028262 C496.777563,233.929202 498.819611,235.809279 500.815511,237.627923 C506.214824,242.578483 511.810266,247.697113 515.986658,253.929649 C522.481985,263.616333 525.216252,275.797422 523.49724,287.347955 C522.412763,294.644553 519.643884,301.570237 516.955765,308.266416 C516.182786,310.181266 515.421345,312.094957 514.694514,314.016762 C511.856414,321.499977 508.833721,331.285185 510.702714,340.612545 C510.829621,341.240783 510.41429,341.851634 509.791292,341.976818 L509.572089,342" id="Fill-150" fill="#231F20"></path>
                <path d="M511.459277,363 L511.297313,362.988257 C510.661026,362.894316 510.22141,362.298965 510.313961,361.656643 C511.702223,351.937268 508.91413,341.840954 506.438396,332.932994 L492.231849,281.591865 C491.6187,279.359591 490.970845,277.05099 489.61729,275.260238 C487.777842,272.829514 484.769942,271.573052 482.352052,270.751068 C477.759219,269.189298 472.981284,268.381405 468.145505,268.348526 C467.509219,268.343829 466.98862,267.814236 467,267.166043 C467,266.520199 467.520787,266 468.157074,266 C473.247368,266.035228 478.268248,266.88422 483.08089,268.523491 C485.811138,269.452333 489.223949,270.895503 491.456737,273.827638 C493.087944,275.978887 493.816782,278.623328 494.464637,280.956589 L508.671184,332.297718 C511.204762,341.431136 514.062268,351.782265 512.604593,361.993657 C512.523611,362.57844 512.026151,363 511.459277,363" id="Fill-151" fill="#231F20"></path>
                <path d="M397,362 L169,362 L169,79.8401755 C169,71.6445944 175.644279,65 183.847811,65 L382.152189,65 C390.355721,65 397,71.6445944 397,79.8401755 L397,362" id="Fill-152" fill="#F1F2F2"></path>
                <path d="M382.152189,63 L183.847811,63 C175.644279,63 169,69.7793217 169,78.1416322 L169,94 L397,94 L397,78.1416322 C397,69.7793217 390.355721,63 382.152189,63" id="Fill-153" fill="#B3CDFA"></path>
                <path d="M196,80.5005626 C196,82.4325671 194.435691,84 192.5,84 C190.575563,84 189,82.4325671 189,80.5005626 C189,78.5674329 190.575563,77 192.5,77 C194.435691,77 196,78.5674329 196,80.5005626" id="Fill-154" fill="#FFFFFF"></path>
                <path d="M209,80.5005626 C209,82.4325671 207.435691,84 205.5,84 C203.564309,84 202,82.4325671 202,80.5005626 C202,78.5674329 203.564309,77 205.5,77 C207.435691,77 209,78.5674329 209,80.5005626" id="Fill-155" fill="#FFFFFF"></path>
                <path d="M224,80.5005626 C224,82.4325671 222.435691,84 220.5,84 C218.564309,84 217,82.4325671 217,80.5005626 C217,78.5674329 218.564309,77 220.5,77 C222.435691,77 224,78.5674329 224,80.5005626" id="Fill-156" fill="#FFFFFF"></path>
                <polygon id="Fill-157" fill="#D1E1FC" points="232 84 368 84 368 77 232 77"></polygon>
                <path d="M342.750623,232 L219.261011,232 C203.100556,232 190,218.855152 190,202.640137 L190,143.361031 C190,127.144848 203.100556,114 219.261011,114 L342.750623,114 C358.911078,114 372,127.144848 372,143.361031 L372,202.640137 C372,218.855152 358.911078,232 342.750623,232" id="Fill-158" fill="#D1E1FC"></path>
                <path d="M397,362 L169,362 L169,79.8401755 C169,71.6445944 175.644279,65 183.847811,65 L382.152189,65 C390.355721,65 397,71.6445944 397,79.8401755 L397,362" id="Fill-159" fill="#F1F2F2"></path>
                <path d="M382.152189,63 L183.847811,63 C175.644279,63 169,69.7793217 169,78.1416322 L169,94 L397,94 L397,78.1416322 C397,69.7793217 390.355721,63 382.152189,63" id="Fill-160" fill="#FF6666"></path>
                <path d="M196,80.5005626 C196,82.4325671 194.435691,84 192.5,84 C190.575563,84 189,82.4325671 189,80.5005626 C189,78.5674329 190.575563,77 192.5,77 C194.435691,77 196,78.5674329 196,80.5005626" id="Fill-161" fill="#FFFFFF"></path>
                <path d="M209,80.5005626 C209,82.4325671 207.435691,84 205.5,84 C203.564309,84 202,82.4325671 202,80.5005626 C202,78.5674329 203.564309,77 205.5,77 C207.435691,77 209,78.5674329 209,80.5005626" id="Fill-162" fill="#FFFFFF"></path>
                <path d="M224,80.5005626 C224,82.4325671 222.435691,84 220.5,84 C218.564309,84 217,82.4325671 217,80.5005626 C217,78.5674329 218.564309,77 220.5,77 C222.435691,77 224,78.5674329 224,80.5005626" id="Fill-163" fill="#FFFFFF"></path>
                <path d="M360.516653,232 L201.494982,232 C195.154126,232 190,226.83712 190,220.467895 L190,125.533273 C190,119.16288 195.154126,114 201.494982,114 L360.516653,114 C366.857508,114 372,119.16288 372,125.533273 L372,220.467895 C372,226.83712 366.857508,232 360.516653,232" id="Fill-164" fill="#FF6666"></path>
                <path d="M396.83298,363 C396.191119,363 395.665959,362.477955 395.665959,361.834721 L395.665959,79.0389048 C395.665959,71.4797377 389.504092,65.3305587 381.941801,65.3305587 L183.058199,65.3305587 C175.495908,65.3305587 169.334041,71.4797377 169.334041,79.0389048 L169.334041,361.834721 C169.334041,362.477955 168.808881,363 168.16702,363 C167.525159,363 167,362.477955 167,361.834721 L167,79.0389048 C167,70.1955999 174.200515,63 183.058199,63 L381.941801,63 C390.799485,63 398,70.1955999 398,79.0389048 L398,361.834721 C398,362.477955 397.474841,363 396.83298,363" id="Fill-165" fill="#231F20"></path>
                <path d="M352.837498,95 L168.162502,95 C167.523126,95 167,94.552 167,94 C167,93.448 167.523126,93 168.162502,93 L352.837498,93 C353.476874,93 354,93.448 354,94 C354,94.552 353.476874,95 352.837498,95" id="Fill-166" fill="#231F20"></path>
                <path d="M307.082223,314 L251.917777,314 C238.714141,314 228,303.294441 228,290.087582 L228,234.913581 C228,221.706723 238.714141,211 251.917777,211 L307.082223,211 C320.285859,211 331,221.706723 331,234.913581 L331,290.087582 C331,303.294441 320.285859,314 307.082223,314" id="Fill-167" fill="#FF0066"></path>
                <polyline id="Fill-168" fill="#FFFFFF" points="272.271274 285 249 261.951989 258.731201 252.316449 272.271274 265.730069 300.268799 238 310 247.63439 272.271274 285"></polyline>
                <path d="M280,120.499374 C280,121.880541 278.87218,123 277.493734,123 C276.115288,123 275,121.880541 275,120.499374 C275,119.119459 276.115288,118 277.493734,118 C278.87218,118 280,119.119459 280,120.499374" id="Fill-169" fill="#FF0066"></path>
                <path d="M233,105.5 C233,107.433234 231.43543,109 229.5,109 C227.576159,109 226,107.433234 226,105.5 C226,103.566766 227.576159,102 229.5,102 C231.43543,102 233,103.566766 233,105.5" id="Fill-170" fill="#FF0066"></path>
                <path d="M274,76.9994269 C274,79.7616046 271.763761,82 269,82 C266.236239,82 264,79.7616046 264,76.9994269 C264,74.2383954 266.236239,72 269,72 C271.763761,72 274,74.2383954 274,76.9994269" id="Fill-171" fill="#FF0066"></path>
                <path d="M262,336.499422 C262,337.880407 260.879908,339 259.505774,339 C258.120092,339 257,337.880407 257,336.499422 C257,335.119593 258.120092,334 259.505774,334 C260.879908,334 262,335.119593 262,336.499422" id="Fill-172" fill-opacity="0.649062363" fill="#FF0066"></path>
                <path d="M274,336.499422 C274,337.880407 272.879908,339 271.494226,339 C270.120092,339 269,337.880407 269,336.499422 C269,335.119593 270.120092,334 271.494226,334 C272.879908,334 274,335.119593 274,336.499422" id="Fill-173" fill-opacity="0.649062363" fill="#FF0066"></path>
                <path d="M286,336.499422 C286,337.880407 284.888889,339 283.5,339 C282.122685,339 281,337.880407 281,336.499422 C281,335.119593 282.122685,334 283.5,334 C284.888889,334 286,335.119593 286,336.499422" id="Fill-174" fill-opacity="0.649062363" fill="#FF0066"></path>
                <path d="M299,336.499422 C299,337.880407 297.888889,339 296.5,339 C295.122685,339 294,337.880407 294,336.499422 C294,335.119593 295.122685,334 296.5,334 C297.888889,334 299,335.119593 299,336.499422" id="Fill-175" fill-opacity="0.649062363" fill="#FF0066"></path>
                <path d="M311,336.499422 C311,337.880407 309.877315,339 308.5,339 C307.122685,339 306,337.880407 306,336.499422 C306,335.119593 307.122685,334 308.5,334 C309.877315,334 311,335.119593 311,336.499422" id="Fill-176" fill-opacity="0.649062363" fill="#FF0066"></path>
                <path d="M361.495459,185 L307.504541,185 C301.151983,185 296,179.846929 296,173.49097 L296,119.50903 C296,113.153071 301.151983,108 307.504541,108 L361.495459,108 C367.848017,108 373,113.153071 373,119.50903 L373,173.49097 C373,179.846929 367.848017,185 361.495459,185" id="Fill-177" fill="#414042"></path>
                <path d="M331.346433,153.861778 C330.944377,153.705541 330.553809,153.513692 330.186215,153.290825 C329.462515,152.846239 328.819226,152.277583 328.302297,151.622768 C328.038089,151.29536 327.796856,150.947273 327.590085,150.580806 C327.383313,150.215488 327.211004,149.832938 327.073156,149.437751 C326.935308,149.042564 326.820435,148.63474 326.751511,148.218874 C326.602177,147.389441 326.602177,146.527841 326.762999,145.671985 C327.624547,141.079084 332.38029,138.485095 336.665054,140.133622 C337.469166,140.446096 338.204353,140.90102 338.836155,141.459337 C338.996977,141.599491 339.146312,141.745388 339.295647,141.898178 C340.168682,142.811474 340.800484,143.940744 341.122128,145.159621 C341.386336,146.17516 341.443773,147.253883 341.248489,148.323415 C340.375453,152.916316 335.61971,155.510306 331.346433,153.861778 Z M353,144.384181 C353,143.559343 352.333736,142.89189 351.506651,142.893039 L348.31318,142.895337 C347.784764,142.895337 347.336759,142.554143 347.152963,142.060159 C347.038089,141.76262 346.911729,141.469676 346.785369,141.17903 C346.56711,140.698832 346.636034,140.137069 347.015115,139.76256 L349.266626,137.506317 C349.852479,136.922727 349.852479,135.978414 349.266626,135.394823 L345.590689,131.722111 C345.004837,131.13967 344.062878,131.13967 343.477025,131.72326 L341.214027,133.995585 C340.85792,134.354011 340.318017,134.456254 339.847037,134.256363 C339.525393,134.118507 339.180774,133.977205 338.870617,133.860027 C338.399637,133.676219 338.08948,133.220146 338.08948,132.713525 L338.08948,129.49344 C338.08948,128.668601 337.423216,128 336.596131,128 L331.403869,128 C330.576784,128 329.91052,128.668601 329.91052,129.49344 L329.91052,132.682507 C329.91052,133.208658 329.577388,133.661285 329.083434,133.84739 C328.76179,133.965717 328.46312,134.094382 328.152963,134.233387 C327.670496,134.453957 327.107618,134.376987 326.740024,134.003627 L324.477025,131.754277 C323.891173,131.172985 322.949214,131.175282 322.363362,131.760021 L318.698912,135.445371 C318.124547,136.028961 318.124547,136.974423 318.710399,137.556864 L320.984885,139.822297 C321.340992,140.179574 321.444377,140.716064 321.249093,141.182476 C321.111245,141.506438 320.973398,141.855673 320.858525,142.157807 C320.674728,142.632261 320.215236,142.941289 319.709794,142.941289 L316.493349,142.94933 C315.666264,142.951628 315,143.622527 315,144.446216 L315.011487,149.642237 C315.011487,150.467075 315.689238,151.133379 316.504837,151.131081 L319.698307,151.12304 C320.226723,151.12304 320.674728,151.463085 320.870012,151.95592 C320.984885,152.253459 321.099758,152.547551 321.237606,152.8359 C321.455865,153.316098 321.375453,153.87901 321.00786,154.253519 L318.756348,156.513208 C318.170496,157.097947 318.170496,158.043409 318.756348,158.62585 L322.443773,162.29167 C323.018138,162.874112 323.971584,162.871814 324.545949,162.287075 L326.820435,160.010154 C327.176542,159.651729 327.716445,159.549485 328.175937,159.747079 C328.497582,159.884935 328.853688,160.025088 329.152358,160.142266 C329.623337,160.326074 329.933495,160.780999 329.933495,161.287619 L329.944982,164.508854 C329.944982,165.333692 330.611245,166.001144 331.438331,166 L336.630593,165.990805 C337.457678,165.989656 338.123942,165.319906 338.123942,164.496217 L338.112455,161.307149 C338.112455,160.77985 338.457074,160.324925 338.951028,160.13882 C339.249698,160.026237 339.53688,159.904465 339.83555,159.772353 C340.30653,159.552932 340.880895,159.63105 341.248489,160.003261 L343.511487,162.257206 C344.085852,162.838499 345.039299,162.83735 345.613664,162.25376 L349.289601,158.575303 C349.875453,157.991713 349.863966,157.046251 349.289601,156.463809 L347.015115,154.19493 C346.647521,153.836505 346.544135,153.300015 346.750907,152.834751 C347.084039,152.058163 347.41717,151.13223 347.440145,151.078237 L351.506651,151.07479 C352.333736,151.073641 353,150.40504 353,149.580202 L353,144.384181 L353,144.384181 Z" id="Fill-178" fill="#FF6666"></path>
                <path d="M251.821029,198 L216.178971,198 C208.895236,198 203,192.099552 203,184.820176 L203,149.179824 C203,141.900448 208.895236,136 216.178971,136 L251.821029,136 C259.104764,136 265,141.900448 265,149.179824 L265,184.820176 C265,192.099552 259.104764,198 251.821029,198" id="Fill-179" fill="#FFFFFF"></path>
                <path d="M217.053758,138.303642 C210.568294,138.303642 205.303895,143.575527 205.303895,150.05452 L205.303895,184.94548 C205.303895,191.425625 210.568294,196.696358 217.053758,196.696358 L251.946242,196.696358 C258.431706,196.696358 263.696105,191.425625 263.696105,184.94548 L263.696105,150.05452 C263.696105,143.575527 258.431706,138.303642 251.946242,138.303642 L217.053758,138.303642 Z M251.946242,199 L217.053758,199 C209.301152,199 203,192.696084 203,184.94548 L203,150.05452 C203,142.305068 209.301152,136 217.053758,136 L251.946242,136 C259.698848,136 266,142.305068 266,150.05452 L266,184.94548 C266,192.696084 259.698848,199 251.946242,199 L251.946242,199 Z" id="Fill-180" fill="#231F20"></path>
                <path d="M245.046756,171.329258 L228.796725,180.490058 C226.216402,181.949049 223,180.103366 223,177.160476 L223,158.838875 C223,155.897171 226.216402,154.051488 228.796725,155.509293 L245.046756,164.670093 C247.651081,166.140945 247.651081,169.858406 245.046756,171.329258" id="Fill-181" fill="#FF6666"></path>
                <path d="M332,239.349418 L351.549191,238.701702 C354.002968,238.62059 356.248405,237.273435 357.510016,235.128095 L372.209527,210 L410,232.806427 L391.168423,264.937145 C384.987684,275.491039 373.52901,281.663738 361.456893,280.94314 L332.057872,278.044287 L332,239.349418" id="Fill-183" fill="#FFFFFF"></path>
                <path d="M332.40969,276.856157 L361.208429,279.622877 C373.021789,280.309033 384.176892,274.458101 390.265768,264.350677 L408.779243,233.563215 L372.422305,212.187717 L358.093463,236.048495 C356.600631,238.52447 353.979358,240.058436 351.075975,240.152637 L332.350917,240.756221 L332.40969,276.856157 Z M363.053899,282 C362.372133,282 361.702122,281.981392 361.020356,281.941851 L330.058773,278.966959 L330,238.5047 L350.993693,237.827848 C353.097764,237.759232 354.990252,236.650916 356.071674,234.861096 L371.599484,209 L412,232.752621 L392.275803,265.539238 C386.09289,275.819946 375.031823,282 363.053899,282 L363.053899,282 Z" id="Fill-184" fill="#231F20"></path>
                <path d="M459.757115,93.1370421 C453.592903,85.3049787 443.374218,78.8096404 433.155534,78.0436256 C422.347537,77.2331701 419.542408,87.8813615 419.306683,96.1250848 C419.141676,101.953815 418.517004,107.76968 417.432669,113.501343 C416.914073,116.260166 407.485068,146.53588 406,145.650577 C412.399937,149.467787 419.78992,151.262952 427.06204,153.007828 C434.475595,154.790129 441.948081,156.580615 449.573789,156.938479 C457.211283,157.296342 465.084502,156.13504 471.696592,152.345898 C472.038394,142.068434 472.391981,131.728988 470.942272,121.546253 C469.492562,111.363518 466.133479,101.245105 459.757115,93.1370421" id="Fill-185" fill="#E5186A"></path>
                <path d="M399.121066,234.138527 L403.886675,261.09504 L405.939017,311.995873 C406.715893,311.995873 407.492768,311.995873 408.281238,311.995873 C415.389068,311.995873 422.508493,311.995873 429.616323,311.995873 C440.480983,311.995873 451.345642,311.995873 462.210302,311.995873 C472.298087,311.995873 482.385871,311.995873 492.473655,311.995873 C495.801465,311.995873 499.140869,311.995873 502.480274,311.995873 C503.465862,311.995873 504.463045,312.005159 505.460228,311.995873 C507.489381,311.97614 507.790855,311.278518 507.964782,309.186815 C508.335827,304.893134 505.680536,300.485698 504.439855,296.440422 C503.071627,291.935482 501.970087,287.340002 501.216402,282.688805 C500.022101,275.279624 500.091672,267.732311 500.161243,260.226786 C500.207623,255.099674 500.369956,250.034083 499.836579,244.932508 C499.303201,239.783342 498.758229,234.634175 498.224852,229.483848 C497.366811,221.343383 496.520364,213.201757 495.662323,205.061292 C495.326063,201.813463 495.175326,198.476255 494.630354,195.252803 C491.406901,175.811102 474.733069,161.47794 455.044497,161.231857 L436.747343,161.004346 C436.283537,161 435.808135,161 435.344329,161.002025 L417.37184,161.056581 C401.150218,161.668306 386.853393,171.948066 381.102196,187.152965 L372,211.220326 L391.630597,223.175075 C395.584544,225.582507 398.309406,229.576709 399.121066,234.138527" id="Fill-186" fill="#E5186A"></path>
                <path d="M372.860865,211.115969 L391.514633,222.491694 C395.898966,225.165112 398.922644,229.601376 399.818118,234.664897 L404.574596,261.656741 L406.528357,310.431168 C406.563246,311.121383 407.121463,311.663528 407.819235,311.663528 L503.297686,311.66586 C503.948939,311.668192 504.611823,311.670524 505.274706,311.663528 C506.495807,311.651869 506.495807,311.651869 506.646991,309.908843 C506.867952,307.165471 505.704999,304.223895 504.565304,301.380255 C504.065235,300.117581 503.541906,298.811769 503.158131,297.546763 C501.727699,292.870322 500.634523,288.170563 499.890233,283.579233 C498.669132,276.020678 498.738909,268.293066 498.808687,260.820787 L498.831946,258.672026 C498.890093,254.178632 498.948241,249.934742 498.494689,245.591749 L494.308058,205.542948 C494.191763,204.44933 494.098726,203.345219 494.00569,202.239942 C493.819618,200.093512 493.633545,197.874797 493.284659,195.761013 C490.133056,176.764939 473.90986,162.804405 454.709505,162.564229 L436.358105,162.335712 C435.892923,162.330993 435.439372,162.330993 434.97419,162.33338 L416.948417,162.388177 C401.132255,162.98512 387.269854,172.978083 381.65279,187.846857 L372.860865,211.115969 Z M504.286196,314 C503.948939,314 503.623312,314 503.286056,313.997668 L492.261261,313.995336 L407.819235,313.995336 C405.865474,313.995336 404.283858,312.4715 404.214081,310.52444 L402.24869,261.829294 L397.5271,235.070632 C396.747922,230.668178 394.108018,226.809036 390.305161,224.484224 L370,212.101157 L379.478068,187.021397 C385.420758,171.273532 400.108856,160.689455 416.901899,160.057535 L434.962561,160.001572 C435.427742,159.999185 435.904553,159.999185 436.381364,160.003904 L454.732764,160.232421 C475.072814,160.486588 492.249631,175.267919 495.575677,195.378597 C495.947822,197.584487 496.133894,199.851004 496.319967,202.042904 C496.413003,203.133024 496.506039,204.220812 496.622335,205.299274 L500.808966,245.348076 C501.274147,249.827479 501.216,254.338361 501.157852,258.701174 L501.134593,260.841774 C501.064816,268.217282 500.995038,275.844626 502.181251,283.206144 C502.913911,287.694874 503.983828,292.289702 505.379372,296.864709 C505.739887,298.036443 506.216698,299.239656 506.728397,300.513989 C507.961128,303.609464 509.240376,306.812202 508.961267,310.105881 C508.786824,312.216167 508.379791,313.966189 505.297965,313.995336 C504.960709,314 504.623452,314 504.286196,314 L504.286196,314 Z" id="Fill-187" fill="#231F20"></path>
                <path d="M514,362 C513.97681,361.379349 513.95362,360.757523 513.93043,360.136872 C513.478221,343.493323 516.203065,324.795044 505.686328,312 L405.899072,312.432575 L399,362 L514,362" id="Fill-188" fill="#414042"></path>
                <path d="M400.677057,360.664915 L513.56737,360.664915 C513.56737,360.447752 513.555731,360.23059 513.544092,360.014594 C513.462616,356.802685 513.497534,353.461179 513.520813,350.229422 C513.648846,336.955633 513.776879,323.237011 505.885382,313.338587 L407.276583,313.762405 L400.677057,360.664915 Z M516,363 L398,363 L405.251332,311.436661 L506.979483,311 L507.328664,311.42265 C516.116394,322.008757 515.976721,336.366025 515.848688,350.251605 C515.825409,353.462347 515.790491,356.780502 515.871967,359.949212 C515.895246,360.559837 515.918524,361.170461 515.941803,361.779918 L516,363 L516,363 Z" id="Fill-189" fill="#231F20"></path>
                <polyline id="Fill-190" fill="#FFFFFF" points="455 170 425 170 429.437524 123 451.952121 123 455 170"></polyline>
                <path d="M426.527828,168.667747 L453.552603,168.667747 L450.703052,123.332253 L430.675763,123.332253 L426.527828,168.667747 Z M456,171 L424,171 L428.58456,121 L452.851706,121 L456,171 L456,171 Z" id="Fill-191" fill="#231F20"></path>
                <path d="M440.494872,175 C456.281188,175 469.996786,172.042616 477,167.690655 C470.741313,163.673996 463.342568,161.330364 455.455227,161.231746 L437.097964,161.004344 C436.632634,160.999703 436.155671,160.998543 435.690341,161.002024 L417.658809,161.056554 C411.74912,161.279315 406.083729,162.782952 401,165.33078 C406.33966,170.939253 421.99801,175 440.494872,175" id="Fill-192" fill="#FFFFFF"></path>
                <path d="M440.882353,176 C422.258824,176 405.870588,172.048063 400.082353,166.166797 L399,165.054248 L400.411765,164.366015 C405.847059,161.725702 411.682353,160.275293 417.752941,160.054604 L430.141176,160 C430.788235,160 431.317647,160.505084 431.317647,161.131888 C431.329412,161.759829 430.8,162.271738 430.152941,162.275151 L417.8,162.328617 C412.682353,162.51518 407.705882,163.641379 403.023529,165.681052 C409.282353,170.469108 424.364706,173.724849 440.882353,173.724849 C454.976471,173.724849 467.941176,171.429221 475.470588,167.667259 C469.623529,164.496836 462.058824,162.587984 454.823529,162.500391 C454.176471,162.493566 453.647059,161.977106 453.658824,161.349165 C453.670588,160.725773 454.188235,160.22524 454.835294,160.22524 L454.847059,160.22524 C463.223529,160.326484 472.047059,162.760896 478.435294,166.738998 L480,167.710487 L478.423529,168.660363 C470.905882,173.187913 456.529412,176 440.882353,176" id="Fill-193" fill="#231F20"></path>
                <path d="M445.859173,216.643726 L439.519124,214 L424.717907,239.128917 C423.459221,241.274226 421.198248,242.621363 418.727494,242.702473 L351.772384,245.357955 L351.737421,245.347375 L348.194452,242.870571 C346.982384,242.025378 345.67708,241.31772 344.313503,240.760528 L331.994695,235.833957 C331.994695,235.833957 331.260462,246.077368 331.353698,246.703916 C331.621751,248.49422 330.456301,250.184606 328.708126,250.592509 L318.918345,251.662225 L288.628296,255.159372 C285.236836,255.261642 285.84287,258.421418 288.849732,258.842251 L303.254695,259.917844 L285.819561,261.991447 C283.465352,261.924443 283.255571,265.689608 286.017688,265.747208 L306.867591,267.150769 L288.511751,267.945415 C285.668053,268.118215 286.227469,270.907705 288.511751,271.325012 L310.270705,273.663105 L291.495304,273.328084 C288.849732,273.487953 289.269294,276.137557 291.495304,276.788791 C297.019537,278.406295 335.234647,282.104455 344.61652,281.260438 C346.388004,281.101744 348.124525,280.696192 349.76781,280.057889 L351.900584,279.235031 C353.905158,279.567701 368.321776,280.692666 368.321776,280.692666 L428.692092,284.943317 C440.847737,285.66273 452.385693,279.490117 458.620852,268.937547 L477,237.778254 L468.853504,230.801591 C461.965693,224.904048 454.21545,220.126768 445.859173,216.643726" id="Fill-194" fill="#FFFFFF"></path>
                <path d="M429.548062,286 C428.88489,286 428.210084,285.980184 427.546913,285.940552 L367.256492,281.725561 C366.674763,281.681267 353.946527,280.69163 351.084419,280.313959 L349.23452,281.021509 C347.477697,281.694089 345.651067,282.120717 343.777899,282.286239 C334.260808,283.137163 295.901581,279.435059 290.31698,277.811308 C288.61833,277.317073 287.50141,275.890317 287.664294,274.419267 C287.745736,273.749018 288.106409,273.034474 288.874291,272.575208 L287.547948,272.432999 C285.732953,272.106617 284.488053,270.736978 284.581129,269.236787 C284.627668,268.404513 285.151224,267.434692 286.396125,266.991745 L285.093051,266.904321 C283.917958,266.881008 282.905749,266.306342 282.370558,265.328362 C281.847002,264.366701 281.881905,263.140437 282.452,262.206751 C282.975556,261.341839 283.87142,260.8511 284.906898,260.8511 L290.200634,260.227477 L287.920255,260.057292 C285.744588,259.760052 284.232092,258.301824 284.325168,256.658257 C284.383341,255.513589 285.325743,254.150944 287.745736,254.078673 L317.890947,250.616693 L327.594191,249.564111 C328.711111,249.271533 329.455725,248.172325 329.281206,247.032319 C329.188129,246.412193 329.57207,240.688851 329.909473,235.99711 L330.025819,234.41066 L343.801168,239.881056 C345.255491,240.468543 346.628372,241.213394 347.908177,242.100453 L351.142592,244.34433 L417.610977,241.72628 C419.693568,241.657506 421.578371,240.545476 422.637118,238.751541 L437.913328,213 L438.820826,213.335707 C439.728324,213.669083 461.054519,221.642129 471.746702,233.008383 C472.188817,233.476974 472.165548,234.214831 471.700164,234.656612 C471.234781,235.096062 470.490167,235.076246 470.048053,234.606489 C460.949807,224.928097 443.113988,217.527385 438.913903,215.870996 L424.638267,239.942835 C423.172309,242.423339 420.566162,243.960831 417.692419,244.055249 L350.642304,246.696612 L350.118748,246.471641 L346.581834,244.016782 C345.441645,243.227637 344.220013,242.565548 342.940209,242.045668 L332.120045,237.750248 C331.82918,241.973398 331.561585,246.211701 331.596488,246.739741 C331.945526,249.040734 330.386491,251.310255 328.059574,251.84995 L327.919959,251.873264 L318.146908,252.934005 L287.920255,256.401814 C287.001123,256.433286 286.652085,256.683901 286.652085,256.784147 C286.640451,256.99513 287.07093,257.589611 288.164581,257.741146 L303.149927,258.850845 L303.231369,261.016622 L302.137718,261.16466 L285.023243,263.184732 L284.941801,263.183566 C284.697475,263.181235 284.534591,263.251174 284.42988,263.42369 C284.290265,263.647495 284.290265,263.978539 284.418245,264.210504 C284.546225,264.444799 284.802186,264.568358 285.197762,264.575352 L306.070208,265.971801 L306.035304,268.298438 L287.710833,269.086418 C287.164007,269.120222 286.908046,269.293903 286.896412,269.375499 C286.896412,269.543353 287.152373,269.99679 287.873717,270.127343 L309.502411,272.432999 L309.362796,274.757305 L290.619479,274.425095 C290.212268,274.453071 289.991211,274.603439 289.979577,274.678041 C289.956308,274.889024 290.258807,275.369272 290.968517,275.572095 C296.145907,277.075783 334.388789,280.783716 343.580111,279.964264 C345.220588,279.817392 346.84943,279.439722 348.408464,278.844074 L350.828458,277.915051 L351.130957,277.96634 C352.678357,278.220452 362.463043,279.015425 367.419376,279.400089 L427.686528,283.613914 C439.41419,284.293488 450.467046,278.439594 456.482127,268.308929 L474.841502,237.412209 C475.167271,236.858525 475.87698,236.676684 476.43544,237.006563 C476.982266,237.335276 477.168419,238.050985 476.831016,238.603503 L458.483275,269.501389 C452.363483,279.80457 441.403704,286 429.548062,286" id="Fill-195" fill="#231F20"></path>
                <path d="M358.115476,285 C357.926986,285 357.738497,284.990757 357.561788,284.971116 C354.970059,284.697293 352.531477,282.00875 351,278.27922 L352.578599,278.526469 C353.898025,281.730306 355.665113,283.446029 357.703155,283.660928 C362.721686,284.18431 368.070074,274.719529 369.354158,262.977516 C370.00209,257.103621 369.58977,251.486219 368.19966,247.157052 C366.892015,243.068202 364.79507,240.581848 362.462513,240.335755 C360.165298,240.094283 357.926986,241.588174 355.771139,245.120137 L354.20432,245.159419 C356.631122,241.160688 359.764758,238.727481 362.60388,239.024411 C365.537247,239.335205 367.98761,242.082672 369.483745,246.76076 C370.932757,251.259766 371.356858,257.06896 370.697145,263.118471 C369.318816,275.59992 363.864403,285 358.115476,285" id="Fill-196" fill="#FAAF3D"></path>
                <path d="M364.863884,288 C361.830062,288 358.605133,285.463633 355.869915,280.877901 L357.542101,281.007225 C360.25343,285.556839 362.857262,287.091242 365.556647,286.610066 C370.597092,285.707134 372.997873,275.04787 370.788199,263.334214 C368.590469,251.620558 362.45116,242.488706 357.422659,243.390474 C355.977413,243.64912 354.651608,244.924877 353.636353,246.723751 L352,246.722586 C353.218307,244.5905 355.332427,242.412977 357.171831,242.084426 C363.143922,241.013723 369.713223,250.244605 372.125947,263.094209 C374.550616,275.944977 371.767622,286.847742 365.795531,287.91728 C365.484982,287.973203 365.174433,288 364.863884,288" id="Fill-197" fill="#414042"></path>
                <path d="M417.831463,141.683509 C426.208443,146.011853 437.213494,144.151258 443.490362,137.133411 C446.306154,133.986172 448.828634,130.574488 451.022605,126.958838 C452.019864,125.302209 453.498155,123.314728 454.014383,121.430416 C454.530611,119.529502 454.483682,117.176781 454.741796,115.194043 C455.469209,109.574311 456.208354,103.953393 456.935767,98.3336608 C457.510657,93.8974046 454.155173,89.9354875 449.732033,89.8323187 C441.09694,89.6295388 432.473579,89.4267588 423.850217,89.2239789 C422.019953,89.1812884 420.189688,89.137412 418.359424,89.0947215 C417.397362,89.0721904 416.364905,88.9405613 415.414575,89.0318715 C414.839685,89.0864205 414.417316,89.7279641 413.936285,90.0184968 C411.097029,91.7450911 408.86786,92.9617708 407.940996,96.3212773 C405.934744,103.541904 405.617968,111.101683 406.380578,118.534576 C407.049328,125.188368 408.363364,132.490818 412.821701,137.714477 C414.264794,139.410239 415.966001,140.719415 417.831463,141.683509" id="Fill-198" fill="#FFFFFF"></path>
                <path d="M416.241797,90.3578034 C416.031968,90.3578034 415.82214,90.364874 415.623968,90.3837287 C415.623968,90.401405 415.449111,90.5616703 415.33254,90.6677281 C415.134368,90.8421344 414.912883,91.0401091 414.656426,91.2015528 L414.283397,91.4242743 C411.683855,92.9939309 409.970256,94.0321197 409.212542,96.7719482 C407.405686,103.281545 406.904429,110.560651 407.697114,118.408933 C408.338257,124.71702 409.573913,131.837039 413.828769,136.819402 C415.111054,138.325424 416.673111,139.558052 418.456653,140.484291 C426.360192,144.573412 436.723388,142.742146 442.551957,136.220765 C445.291385,133.15687 447.762698,129.81369 449.895954,126.285498 C450.129097,125.904868 450.385554,125.506562 450.653668,125.096472 C451.469668,123.817885 452.402239,122.367249 452.751953,121.093376 C453.043382,119.993909 453.148296,118.646974 453.229896,117.345998 C453.288182,116.559991 453.346467,115.783412 453.439724,115.056326 L455.619609,98.3015384 C455.852752,96.5315503 455.316524,94.7379938 454.174124,93.3828098 C453.020067,92.0276258 451.353097,91.2251212 449.581212,91.1838765 L418.421681,90.4520771 C418.095281,90.4438282 417.757224,90.4249734 417.430825,90.4049403 C417.022825,90.3813719 416.626482,90.3578034 416.241797,90.3578034 Z M427.560878,145 C424.063736,145 420.554938,144.215172 417.395853,142.58188 C415.33254,141.517766 413.53734,140.096591 412.056884,138.35842 C407.382372,132.882298 406.053458,125.322729 405.377344,118.65051 C404.549687,110.506443 405.085915,102.931554 406.962715,96.1367793 C407.976886,92.4919236 410.343285,91.0601423 413.082712,89.4009257 L413.45574,89.180561 C413.560655,89.1145694 413.665569,89.0120468 413.770483,88.9142379 C414.143512,88.5748527 414.656426,88.1093765 415.402483,88.0374928 C416.136882,87.9667875 416.859625,88.0103891 417.57071,88.0516338 C417.873796,88.0704886 418.176881,88.0881649 418.46831,88.0964138 L449.639497,88.8282132 C452.064182,88.8847774 454.360638,89.9866009 455.946009,91.8496842 C457.519723,93.7127676 458.242465,96.1768456 457.927723,98.6079278 L455.747838,115.363894 C455.654581,116.0462 455.607952,116.774464 455.561324,117.510977 C455.456409,118.928617 455.363152,120.393394 454.990124,121.720296 C454.547152,123.345338 453.521324,124.95624 452.60041,126.378594 C452.355611,126.771008 452.110811,127.151638 451.889325,127.516948 C449.674469,131.168874 447.109898,134.628718 444.277214,137.801027 C440.103958,142.478179 433.844075,144.998822 427.560878,145 L427.560878,145 Z" id="Fill-199" fill="#231F20"></path>
                <path d="M484.540868,135.395154 C480.454121,122.488593 478.200573,103.9472 477.581723,101.525619 C475.21141,92.2223241 468.730997,83.8830048 460.884444,78.4286266 C453.131302,73.0382806 443.825196,70.1498468 434.437356,69.4617919 C425.551601,68.8121562 413.676684,68.2393592 405.456485,72.2442815 C398.158723,75.8009785 395.963557,84.2578842 400.003597,91.1512403 C404.499019,98.8316102 412.695864,101.472065 421.207974,101.746821 C424.67587,101.858586 429.019498,100.296201 432.347277,99.2728502 C436.457376,98.0119982 440.555799,96.933929 442.57582,102.005278 C445.54163,109.429519 442.283909,120.285886 439.57498,127.311963 C438.804336,129.285319 427.571622,150.889779 426.882713,150.350744 C431.88022,154.239245 438.967806,155.268416 445.167985,156.288275 C459.833566,158.700542 474.440766,154.589675 488.288998,149.823352 C490.063814,149.2133 490.5659,147.001279 489.281494,145.644961 C486.794417,143.033612 485.556716,138.585121 484.540868,135.395154" id="Fill-200" fill="#E5186A"></path>
                <path d="M437.118394,116.491494 C436.413813,121.708116 438.926818,126.388415 442.71981,126.945506 C446.524546,127.502598 450.176623,123.725128 450.881204,118.508506 C451.585784,113.291884 449.084523,108.611585 445.279787,108.054494 C441.486794,107.497402 437.834717,111.274872 437.118394,116.491494" id="Fill-201" fill="#FFFFFF"></path>
                <path d="M444.417912,126 C444.116408,126 443.803307,125.978299 443.501802,125.936038 C443.165508,125.876644 440.486755,125.358093 439.199561,123.500903 C438.840075,122.978925 438.979231,122.268487 439.512662,121.914411 C440.046094,121.560334 440.765067,121.696254 441.124553,122.218231 C441.750755,123.121698 443.316261,123.580856 443.872885,123.681368 C445.276041,123.870971 446.760372,123.307874 448.024373,122.075459 C449.357952,120.760806 450.274062,118.871635 450.575567,116.757454 C450.877072,114.644415 450.529182,112.581632 449.613071,110.952879 C448.743346,109.42578 447.479345,108.475483 446.029803,108.274459 C445.392005,108.186511 444.951344,107.608566 445.044115,106.983792 C445.136885,106.359018 445.728298,105.921562 446.354501,106.011794 C448.534612,106.315615 450.413218,107.674813 451.64243,109.841534 C452.802063,111.903175 453.242724,114.473087 452.871641,117.076123 C452.500559,119.6803 451.352521,122.030913 449.659456,123.695074 C448.117144,125.200472 446.284923,126 444.417912,126" id="Fill-202" fill="#231F20"></path>
                <path d="M427.958759,258 L427.917639,257.998771 C427.352233,257.972956 426.910188,257.401353 426.930748,256.722805 C427.167191,249.177641 423.507472,246.292581 423.476632,246.264309 C422.993466,245.89922 422.859825,245.139541 423.157948,244.566708 C423.466351,243.996334 424.103718,243.827926 424.586883,244.193015 C424.771925,244.339296 429.274613,247.880778 428.98677,256.817457 C428.96621,257.480025 428.503605,258 427.958759,258" id="Fill-203" fill="#231F20"></path>
                <path d="M416.465744,126 C415.998532,126 415.563176,125.751998 415.287096,125.332302 C415.000398,124.90426 414.926069,124.347448 415.074727,123.843098 L416.97543,115.883188 C417.124088,115.247683 417.718721,114.869718 418.281499,115.041412 C418.844277,115.211913 419.184068,115.866495 419.024791,116.502 L417.325839,123.597481 L419.927359,123.543826 C420.521992,123.558134 420.989204,124.055331 420.999823,124.71349 C421.010441,125.371649 420.543229,125.915345 419.959214,125.928461 L416.486981,126 L416.465744,126 L416.465744,126 Z" id="Fill-204" fill="#231F20"></path>
                <path d="M408.043223,112 C407.710375,112 407.38793,111.789291 407.190301,111.395968 C406.857454,110.759627 406.97187,109.883077 407.450338,109.441993 C410.404358,106.674682 413.327174,108.725583 413.451992,108.81408 C413.951263,109.177904 414.148891,110.029169 413.878452,110.714675 C413.608014,111.395968 412.983925,111.654437 412.474253,111.297637 C412.380639,111.234424 410.518775,109.984217 408.636107,111.748554 C408.459282,111.918526 408.251252,112 408.043223,112" id="Fill-205" fill="#231F20"></path>
                <path d="M426.037617,110 C425.694699,110 425.362173,109.760953 425.164735,109.325129 C424.852992,108.645885 424.998472,107.745086 425.476479,107.312177 C428.510782,104.611236 431.368431,106.901133 431.482737,106.998792 C431.981526,107.405464 432.14779,108.298976 431.856829,108.994253 C431.565868,109.685157 430.93199,109.921289 430.443592,109.518991 C430.36046,109.454856 428.531565,108.045352 426.598755,109.772614 C426.422101,109.92712 426.224663,110 426.037617,110" id="Fill-206" fill="#231F20"></path>
                <path d="M410.005804,115.067955 C410.055554,115.619101 410.543104,116.03517 411.090354,115.997649 C411.647553,115.960128 412.045553,115.482357 411.995803,114.932045 C411.936103,114.380899 411.448554,113.96483 410.901304,114.002351 C410.354054,114.039872 409.946104,114.516809 410.005804,115.067955" id="Fill-207" fill="#231F20"></path>
                <path d="M427.004197,114.067955 C427.063897,114.619101 427.551446,115.03517 428.098696,114.997649 C428.645946,114.959294 429.053896,114.482357 428.994196,113.931211 C428.944446,113.380899 428.456896,112.96483 427.909646,113.002351 C427.352447,113.039872 426.954447,113.516809 427.004197,114.067955" id="Fill-208" fill="#231F20"></path>
                <path d="M423.423653,133.046588 C424.182871,134.130666 425.735818,134.318431 426.886149,133.464631 C428.03648,132.60965 428.347069,131.039036 427.576347,129.953777 C426.817129,128.868518 425.264182,128.681934 424.113851,129.535734 C422.96352,130.389534 422.652931,131.961329 423.423653,133.046588" id="Fill-209" fill="#FF5722"></path>
                <path d="M422.094459,134 C421.492607,134 421.000183,133.468076 421.000183,132.808587 C420.98924,132.143081 421.470721,131.599123 422.083516,131.593106 C423.09025,131.582275 423.823414,131.310296 424.272067,130.786796 C424.819205,130.142952 424.808262,129.275267 424.808262,129.268046 C424.775434,128.603743 425.23503,128.038123 425.847824,128.003223 C426.438733,127.953882 426.963986,128.477381 426.996814,129.141684 C427.007757,129.333032 427.051528,131.053961 425.86971,132.434315 C424.994289,133.456042 423.724929,133.981948 422.105401,134 L422.094459,134" id="Fill-210" fill="#231F20"></path>
                <path d="M411,50.0006143 C411,52.7613957 408.751843,55 406,55 C403.235872,55 401,52.7613957 401,50.0006143 C401,47.2386043 403.235872,45 406,45 C408.751843,45 411,47.2386043 411,50.0006143" id="Fill-211" fill-opacity="0.67360031" fill="#FF0066"></path>
                <path d="M70.5,140.926404 C67.5006143,140.926404 65.0730958,138.49742 65.0730958,135.5 C65.0730958,132.503747 67.5006143,130.073596 70.5,130.073596 C73.4993857,130.073596 75.9269042,132.503747 75.9269042,135.5 C75.9269042,138.49742 73.4993857,140.926404 70.5,140.926404 Z M70.5,126 C65.2481572,126 61,130.253348 61,135.5 C61,140.746652 65.2481572,145 70.5,145 C75.740172,145 80,140.746652 80,135.5 C80,130.253348 75.740172,126 70.5,126 L70.5,126 Z" id="Fill-212" fill-opacity="0.67360031" fill="#FF0066"></path>
                <path d="M511.5,98.9264037 C508.500614,98.9264037 506.073096,96.4974198 506.073096,93.5 C506.073096,90.5025802 508.500614,88.0735963 511.5,88.0735963 C514.499386,88.0735963 516.926904,90.5025802 516.926904,93.5 C516.926904,96.4974198 514.499386,98.9264037 511.5,98.9264037 Z M511.5,84 C506.259828,84 502,88.2533481 502,93.5 C502,98.7466519 506.259828,103 511.5,103 C516.751843,103 521,98.7466519 521,93.5 C521,88.2533481 516.751843,84 511.5,84 L511.5,84 Z" id="Fill-213" fill-opacity="0.67360031" fill="#FF0066"></path>
                <path d="M43,99.4994349 C43,102.537347 40.5354573,105 37.5056526,105 C34.4645427,105 32,102.537347 32,99.4994349 C32,96.4626528 34.4645427,94 37.5056526,94 C40.5354573,94 43,96.4626528 43,99.4994349" id="Fill-214" fill-opacity="0.67360031" fill="#FF0066"></path>
                <path d="M13.9558153,329.744578 L10.210064,327.701252 L12.2532011,323.95637 C12.7761469,322.987006 12.4234625,321.771957 11.4505401,321.244098 C10.4897792,320.716238 9.27362618,321.072604 8.73851885,322.041968 L6.69538178,325.788066 L2.94963049,323.745956 C1.98886961,323.216881 0.772716591,323.574463 0.249770794,324.543826 C-0.285336534,325.51319 0.0673478413,326.727023 1.04027025,327.254883 L4.78602155,329.298209 L2.74288448,333.044307 C2.21993868,334.013671 2.57262306,335.227504 3.54554547,335.755363 C4.51846788,336.284439 5.72245937,335.926857 6.2575667,334.957493 L8.30070376,331.211395 L12.0464551,333.253505 C13.0072159,333.78258 14.223369,333.424998 14.7584763,332.455634 C15.2814221,331.486271 14.9287377,330.272438 13.9558153,329.744578" id="Fill-215" fill-opacity="0.67360031" fill="#FF0066"></path>
                <path d="M551.96204,337.744578 L548.215669,335.702468 L550.259144,331.95637 C550.782177,330.987006 550.429434,329.773173 549.45635,329.244098 C548.483267,328.716238 547.279076,329.072604 546.74388,330.041968 L544.700405,333.788066 L540.954034,331.745956 C539.993114,331.216881 538.77676,331.574463 538.241564,332.543826 C537.718531,333.51319 538.071274,334.727023 539.044358,335.254883 L542.790729,337.298209 L540.747254,341.044307 C540.224221,342.013671 540.576964,343.227504 541.550047,343.755363 C542.510967,344.284439 543.727322,343.926857 544.262518,342.957493 L546.293829,339.211395 L550.0402,341.253505 C551.013284,341.78258 552.229638,341.424998 552.752671,340.455634 C553.287866,339.486271 552.92296,338.272438 551.96204,337.744578" id="Fill-216" fill="#FEEFD8"></path>
                <path d="M136.955815,40.7442088 L133.210064,38.7021189 L135.253201,34.9560575 C135.776147,33.9867033 135.423462,32.7728821 134.45054,32.2438118 C133.489779,31.7159577 132.273626,32.0735363 131.738519,33.0428905 L129.707543,36.7889518 L125.94963,34.7456456 C124.98887,34.2177915 123.772717,34.5753701 123.249771,35.543508 C122.714663,36.5128622 123.067348,37.7266834 124.04027,38.2557538 L127.786022,40.2978437 L125.742884,44.0439051 C125.219939,45.0132593 125.572623,46.2270805 126.545545,46.7561508 C127.518468,47.2840049 128.722459,46.9264263 129.257567,45.9582884 L131.300704,42.212227 L135.046455,44.254317 C136.007216,44.7821711 137.223369,44.4258088 137.758476,43.4564546 C138.281422,42.4871004 137.928738,41.2732792 136.955815,40.7442088" id="Fill-217" fill-opacity="0.67360031" fill="#FF0066"></path>
                <path d="M403.955642,8.74457834 L400.209271,6.70125204 L402.252746,2.95637009 C402.787942,1.98700637 402.423036,0.773173244 401.462116,0.244097685 C400.489033,-0.283761609 399.272678,0.0726042276 398.749646,1.04196795 L396.706171,4.78806617 L392.9598,2.74595614 C391.986716,2.21688058 390.770362,2.57446268 390.247329,3.5438264 C389.712134,4.51319013 390.07704,5.72702325 391.03796,6.25488255 L394.784331,8.29820885 L392.740856,12.0443071 C392.217823,13.0136708 392.570566,14.2275039 393.54365,14.7553632 C394.516733,15.2844388 395.720924,14.9268567 396.25612,13.9574929 L398.299595,10.2113947 L402.045966,12.2535048 C403.01905,12.7825803 404.22324,12.4249982 404.758436,11.4556345 C405.281469,10.4862708 404.928726,9.27243764 403.955642,8.74457834" id="Fill-218" fill-opacity="0.67360031" fill="#FF0066"></path>
                <polyline id="Fill-219" fill="#FFFFFF" points="176 286.998681 182.073247 262.055671 182.88611 243 227.384547 252.883035 228 294 176 286.998681"></polyline>
                <path d="M239.267838,260 C248.706569,259.746043 250.277751,259.619654 259.576822,257.954166 C262.626079,257.40609 265.849912,256.691466 268.096121,254.518063 C268.747871,253.892028 269.32979,253.078183 268.782786,251.997387 C268.305612,251.055973 267.281434,250.571682 266.245618,250.584675 C262.33512,250.636648 259.064733,250.776029 255.177512,250.784298 C249.695832,250.79611 246.646575,250.5894 240.827381,250.008251 C238.266936,249.753112 223.288333,255.466564 239.267838,260" id="Fill-220" fill="#FFFFFF"></path>
                <path d="M245.276767,269 C254.70472,268.747224 256.287684,268.620836 265.575963,266.954166 C268.637138,266.40609 271.849625,265.692647 274.096039,263.518063 C274.747848,262.892028 275.32982,262.078183 274.782766,260.997387 C274.305549,260.055973 273.281277,259.571682 272.245367,259.585857 C268.334512,259.636648 265.075467,259.77721 261.187892,259.785479 C255.705712,259.79611 252.644537,259.5894 246.824814,259.008251 C244.264135,258.753112 229.284167,264.466564 245.276767,269" id="Fill-221" fill="#FFFFFF"></path>
                <path d="M238.473521,275.722453 C247.841931,276.98039 249.426637,277.105828 258.864961,276.943705 C261.976112,276.890452 265.2737,276.698744 267.825543,274.905919 C268.559635,274.389963 269.270422,273.67875 268.89755,272.522584 C268.571287,271.514342 267.639107,270.871765 266.602056,270.719108 C262.733509,270.145167 259.482531,269.761751 255.637288,269.147575 C250.218991,268.282522 247.224362,267.589059 241.561368,266.083796 C239.067786,265.422284 223.383855,268.681322 238.473521,275.722453" id="Fill-222" fill="#FFFFFF"></path>
                <path d="M232.498995,283.080835 C241.517548,285.814128 243.041974,286.192319 252.374722,287.582459 C255.446848,288.039727 258.716801,288.396144 261.532917,287.103417 C262.347495,286.730955 263.150438,286.16596 262.975885,285.001589 C262.812969,283.985056 261.99839,283.219505 261.009259,282.903199 C257.297106,281.722784 254.155159,280.824292 250.46628,279.609496 C245.276248,277.896174 242.436859,276.744409 237.107185,274.381285 C234.76818,273.340686 218.779158,273.886198 232.498995,283.080835" id="Fill-223" fill="#FFFFFF"></path>
                <polyline id="Fill-224" fill="#414042" points="119.230769 361 179.826024 361 182 320 118 320 119.230769 361"></polyline>
                <path d="M189.407498,243 L191.637507,223.129638 C193.588765,205.683321 187.60723,188.146573 175.028585,176.046311 C171.915864,173.045615 168.686997,170.630965 165.643963,169.179356 L148.651758,162 L139,238.944656 L189.407498,243" id="Fill-225" fill="#FFFFFF"></path>
                <polyline id="Fill-226" fill="#414042" points="58 361 136.318188 361 141 320 58 320 58 361"></polyline>
                <path d="M58.8492068,320 L57.1320579,204.026975 C55.5667656,186.182101 68.0540598,169.748303 87.2814558,164.217115 C101.719525,160.067849 130.654069,160.169307 148.830149,163.166388 C175.241536,167.522067 184.119313,184.535456 186,208.255541 L182.775965,320 L58.8492068,320" id="Fill-227" fill="#FFFFFF"></path>
                <polyline id="Fill-228" fill="#FF6666" points="58 312 58.1165633 319 181.77853 319 182 312 58 312"></polyline>
                <path d="M87.1403992,164.208282 C80.5299381,166.029304 74.7267722,169.082621 70,173 L172,173 C166.430833,168.173789 158.896077,164.797009 148.787337,163.199837 C145.745354,162.719678 142.410874,162.318987 138.889195,162 L99.9986235,162 C95.0963524,162.505902 90.6854783,163.234534 87.1403992,164.208282" id="Fill-229" fill="#FF6666"></path>
                <polyline id="Fill-230" fill="#FF6666" points="58 283 58.1744186 294 182.674419 294 183 283 58 283"></polyline>
                <polyline id="Fill-231" fill="#FF6666" points="57 222 57.1632829 233 190.495464 233 192 222 57 222"></polyline>
                <polyline id="Fill-232" fill="#FF6666" points="58 253 58.1740011 264 183.675198 264 184 253 58 253"></polyline>
                <path d="M58.2060788,192 C57.2039485,195.531597 56.8077575,199.229979 57.0874217,203 L191,203 C190.487282,199.106848 188.774338,195.735321 186.338929,192 L58.2060788,192" id="Fill-233" fill="#FF6666"></path>
                <path d="M184.100576,321 L57.877502,321 L56.1370579,204.123717 C54.5251031,185.798374 67.2688911,168.961449 87.1379869,163.261473 C102.089452,158.969616 131.291533,159.238439 149.186568,162.18269 C156.895917,163.451162 163.472226,165.869404 168.740281,169.36992 C169.2776,169.726024 169.41777,170.449867 169.055664,170.982858 C168.705239,171.518176 167.969346,171.662479 167.443709,171.305213 C162.455994,167.98973 156.183387,165.69368 148.812782,164.479904 C131.163044,161.576384 102.439877,161.293596 87.7804327,165.498173 C69.0093352,170.886268 56.9547162,186.720053 58.4732244,204.005016 L60.1786259,318.672529 L181.787771,318.672529 L182.663834,228.097832 C182.663834,227.458941 183.189471,226.945734 183.831917,226.945734 L183.843598,226.945734 C184.486043,226.951553 185,227.477561 185,228.121107 L184.100576,321" id="Fill-234" fill="#231F20"></path>
                <path d="M241.272267,249.702442 L231.514521,248.643139 C229.76045,248.237597 228.61043,246.561824 228.86599,244.786996 C228.958921,244.165864 228.238706,234.011005 228.238706,234.011005 L215.948593,238.894986 C214.589478,239.447362 213.300062,240.150068 212.09196,240.987955 L208.548969,243.449174 L208.537352,243.45267 L141.789723,240.820145 C139.327054,240.739735 137.073479,239.404244 135.807295,237.277481 L130.068811,229 L127.106638,229.887997 C113.515492,233.964391 101.782964,242.723161 94,254.621384 L102.026908,266.828425 C108.230046,277.289771 119.730247,283.409024 131.846115,282.69583 L192.030499,283.31463 C192.030499,283.31463 206.399941,282.198225 208.38634,281.868431 L210.512134,282.684176 C212.161658,283.318127 213.892496,283.720172 215.646567,283.877494 C219.654213,284.236422 228.947304,283.766786 238.693434,282.987167 C238.693434,282.987167 253.248739,265.943924 241.272267,249.702442" id="Fill-235" fill="#FFFFFF"></path>
                <path d="M248.82408,260 C245.510872,260 243.104436,259.775878 242.87193,259.752891 C242.232539,259.691976 241.767528,259.129948 241.825654,258.497809 C241.883781,257.86682 242.45342,257.401336 243.092811,257.465699 C243.232314,257.477193 256.950159,258.748366 264.239217,255.102651 C267.691929,253.378637 267.668678,252.418935 267.668678,252.378708 C267.657053,252.123554 267.133915,251.743122 266.657278,251.53624 L240.756127,250.9064 L230.758376,249.832914 C228.421693,249.299619 226.875529,247.061849 227.235913,244.739027 C227.259163,244.265498 226.991782,240.092235 226.701149,235.929315 L215.878003,240.168091 C214.610846,240.676101 213.39019,241.330077 212.250911,242.108182 L208.216935,244.752819 L207.984429,244.742475 L141.185502,242.14611 C138.314055,242.053013 135.721615,240.53818 134.245202,238.091229 L129.025446,230.679118 L126.874767,231.318152 C117.028145,234.22484 108.088296,239.64514 100.996867,246.991739 C100.555106,247.451476 99.822713,247.468716 99.3577013,247.030817 C98.8926896,246.592917 98.8810643,245.864234 99.3228254,245.405646 C106.681635,237.769413 115.981869,232.136484 126.2005,229.116012 L129.97872,228 L136.209877,236.84764 C137.31428,238.685439 139.185952,239.781912 141.266879,239.848574 L207.693797,242.431147 L210.925628,240.217513 C212.20441,239.344013 213.576195,238.608433 215.017731,238.033762 L228.793702,232.636449 L228.909955,234.200704 C229.247088,238.826808 229.619098,244.470081 229.526095,245.081531 C229.363341,246.205589 230.095735,247.290568 231.223388,247.579053 L240.907256,248.614611 L267.087414,249.24675 L267.261793,249.305366 C267.529175,249.395015 269.854233,250.24323 269.993737,252.221248 C270.109989,253.925724 268.610327,255.493427 265.297119,257.155377 C260.57725,259.51038 253.718328,260 248.82408,260" id="Fill-236" fill="#231F20"></path>
                <path d="M255.100924,290 C245.672405,290 233.875145,285.756894 231.94764,285.039649 C228.893821,285.289383 226.559914,285.52373 224.655632,285.711918 C220.533558,286.122618 218.466715,286.329743 215.656738,286.075275 C213.798901,285.906024 211.964288,285.47402 210.210955,284.789915 L208.376342,284.071487 C205.519918,284.454964 192.805351,285.459817 192.248,285.504793 L131.984436,284.879867 C119.478875,285.631435 107.64678,279.236595 101.190799,268.185582 L93.1904915,255.835006 C92.8421472,255.28938 92.981485,254.555565 93.5272244,254.195759 C94.0613523,253.835953 94.7812639,253.986267 95.1296082,254.53071 L103.153139,266.928628 C109.191107,277.262397 120.198787,283.212214 131.926378,282.51509 L192.16672,283.141199 C197.020317,282.754171 206.785569,281.946975 208.318284,281.688956 L208.631794,281.636879 L211.046981,282.579003 C212.602919,283.184992 214.216915,283.567285 215.865744,283.717599 C218.455104,283.951946 220.452278,283.753106 224.435014,283.35661 C226.397354,283.160137 228.824152,282.918688 232.017308,282.659486 L232.272761,282.638181 L232.516602,282.7305 C232.702386,282.803881 251.478144,289.897029 260.604764,286.904959 C261.138892,286.587761 261.707855,286.012545 261.684632,285.720203 C261.67302,285.710735 261.522071,284.697597 257.632226,283.59214 L235.547197,277.254112 C234.920178,277.077759 234.560222,276.424427 234.734394,275.794767 C234.908566,275.16629 235.558809,274.799383 236.174217,274.975735 L258.259246,281.31258 C261.974919,282.368327 263.797921,283.686826 263.983704,285.459817 C264.215934,287.55474 261.893638,288.890993 261.626574,289.036572 L261.452402,289.117055 C259.594566,289.744348 257.42322,290 255.100924,290" id="Fill-237" fill="#231F20"></path>
                <path d="M105,161 L121.62471,198.623392 C121.833389,199.031349 122.366678,199.127271 122.702882,198.815236 L140,182.598635 L105,161" id="Fill-238" fill="#FFFFFF"></path>
                <path d="M122.235034,201 C122.131579,201 122.028123,200.991772 121.924667,200.971789 C121.361408,200.869524 120.86712,200.493376 120.614228,199.967945 L104.095799,161.649079 C103.842908,161.054296 104.107295,160.360773 104.693544,160.098645 C105.268298,159.840044 105.946507,160.106874 106.199399,160.700482 L122.407461,198.312895 L139.06383,182.286655 C139.523634,181.843506 140.259319,181.864664 140.696132,182.338375 C141.12145,182.81091 141.098459,183.554978 140.638656,183.999302 L123.499493,200.493376 C123.154641,200.82133 122.706333,201 122.235034,201" id="Fill-239" fill="#231F20"></path>
                <path d="M156.911623,187.992426 L137,161 L139.748904,183.149118 L156.051097,188.955986 C156.660637,189.172816 157.222369,188.546676 156.911623,187.992426" id="Fill-240" fill="#FFFFFF"></path>
                <path d="M156.168239,191 C155.948609,191 155.728979,190.963105 155.520908,190.885856 L139.753782,185.111787 C139.152689,184.89157 138.852143,184.229766 139.071773,183.631375 C139.291403,183.032984 139.950293,182.727447 140.551386,182.946512 L154.942934,188.216733 L139.198927,164.796474 C138.840583,164.267261 138.979297,163.551267 139.511033,163.196153 C140.042769,162.839885 140.759456,162.982854 141.1178,163.512066 L157.775006,188.302053 C158.14491,188.977692 158.052434,189.789383 157.543817,190.368173 C157.185473,190.77863 156.676856,191 156.168239,191" id="Fill-241" fill="#231F20"></path>
                <path d="M190.211357,244 L190.082146,243.991797 C189.436094,243.919145 188.977984,243.339096 189.048463,242.69577 L191.303772,222.869829 C193.253675,205.686332 187.09856,188.491117 174.858809,176.87257 C171.417113,173.600862 168.75068,171.676742 165.673122,170.233065 C165.085802,169.957689 164.839128,169.259287 165.109295,168.674551 C165.379462,168.088644 166.084246,167.835532 166.671566,168.11208 C169.995798,169.670594 172.838428,171.716583 176.479812,175.17461 C189.248152,187.297037 195.661687,205.224637 193.62956,223.13466 L191.385997,242.9606 C191.315519,243.558226 190.798677,244 190.211357,244" id="Fill-242" fill="#231F20"></path>
                <path d="M245.162495,270 C244.535159,270 244.012379,269.496055 244.000762,268.861153 C243.977527,268.215729 244.48869,267.679045 245.127643,267.661506 C254.305338,267.417134 255.838826,267.321255 265.225633,265.65274 C268.129967,265.135933 271.138857,264.470631 273.125421,262.556574 C273.810844,261.899457 273.69467,261.666777 273.578497,261.442282 C273.288064,260.869351 272.637493,260.702148 272.091478,260.679933 C269.965506,260.709164 266.282811,260.603932 262.704671,260.502207 C259.626078,260.415683 256.744978,260.319805 254.955909,260.338513 C254.316955,260.338513 253.794175,259.817028 253.794175,259.171604 C253.794175,258.486425 254.363425,257.996511 255.072082,258 C256.884386,258 259.742251,258.080697 262.774375,258.164883 C266.317663,258.264269 269.977123,258.37067 272.068243,258.341439 C273.624966,258.337931 274.995812,259.099111 275.646383,260.37359 C276.331805,261.707701 276.018137,263.011411 274.728613,264.248474 C272.277355,266.612692 268.885094,267.37621 265.63224,267.954987 C256.08279,269.652734 254.526067,269.749781 245.18573,269.998831 L245.162495,270" id="Fill-243" fill="#231F20"></path>
                <path d="M254.473673,279 C248.915411,279 246.399566,278.702839 239.015853,277.732114 C238.383966,277.648209 237.927604,277.062045 238.009515,276.424606 C238.103128,275.786001 238.688208,275.338512 239.331796,275.422416 C248.494153,276.62854 250.038765,276.776538 259.634081,276.614556 C262.606289,276.564446 265.695512,276.383819 267.977325,274.815276 C268.761333,274.275725 268.691123,274.027508 268.609212,273.788614 C268.410285,273.177978 267.778398,272.879652 267.251826,272.803905 C265.157239,272.498587 262.500974,271.978846 259.926621,271.475421 C257.609703,271.02327 255.421503,270.595592 253.631158,270.315911 C252.999271,270.216857 252.566312,269.620205 252.659924,268.983931 C252.765239,268.348823 253.362021,267.914152 254.005609,268.014371 C255.831059,268.299878 258.042663,268.732218 260.371282,269.18903 C262.922232,269.686629 265.555093,270.200543 267.579471,270.497703 C269.135784,270.722613 270.387856,271.706158 270.832517,273.063775 C271.300581,274.483155 270.785711,275.718412 269.311308,276.73342 C266.491222,278.671375 263.004143,278.888128 259.669186,278.945229 C257.633106,278.979024 255.948075,279 254.473673,279" id="Fill-244" fill="#231F20"></path>
                <path d="M127.155913,363 L126.958685,362.982601 C126.332199,362.87357 125.902939,362.27274 126.018955,361.641752 L128.687325,346.217347 L140.068502,336.286249 C140.555769,335.865203 141.286671,335.913919 141.71593,336.397599 C142.133588,336.880119 142.087181,337.613179 141.599914,338.034224 L130.833622,347.424808 L128.304472,362.038439 C128.200057,362.602153 127.71279,363 127.155913,363" id="Fill-245" fill="#231F20"></path>
                <path d="M57.9708738,362 L57.9708738,362 C57.4368932,361.998856 57,361.485153 57,360.853608 L57.0582524,320.141816 C57.0582524,319.51027 57.4951456,319 58.0291262,319 C58.5728155,319.001144 59,319.513703 59,320.145248 L58.9417476,360.85704 C58.9417476,361.488586 58.5145631,362 57.9708738,362" id="Fill-246" fill="#231F20"></path>
                <path d="M179.25061,362 L179.175687,361.997712 C178.48889,361.962244 177.964426,361.422221 178.001888,360.791813 L180.51182,320.079556 C180.549282,319.448004 181.148668,318.98006 181.822978,319.000654 C182.509776,319.036122 183.046726,319.577289 182.996777,320.207698 L180.499333,360.919954 C180.461871,361.528624 179.899946,362 179.25061,362" id="Fill-247" fill="#231F20"></path>
                <path d="M227.841332,295 L227.690769,294.98873 L182.996522,288.493695 C182.371104,288.401034 181.919413,287.769938 182.012067,287.084998 C182.09314,286.400058 182.672231,285.921727 183.309231,286.010631 L228.003478,292.506918 C228.628896,292.598327 229.080587,293.229424 228.987933,293.914364 C228.918442,294.542956 228.420424,295 227.841332,295" id="Fill-248" fill="#231F20"></path>
                <polyline id="Fill-249" fill="#FFFFFF" points="106 162.123309 139 182 134.795143 126 106 126 106 162.123309"></polyline>
                <path d="M106.356021,161.427964 L137.302356,179.702886 L133.28534,127.321509 L106.356021,127.321509 L106.356021,161.427964 Z M140,184 L104,162.743099 L104,125 L135.47644,125 L140,184 L140,184 Z" id="Fill-250" fill="#231F20"></path>
                <path d="M108.986714,122.126181 C109.196256,125.156433 106.902314,127.780887 103.869457,127.987094 C100.836601,128.193301 98.2118015,125.904071 98.0132873,122.873819 C97.8037444,119.843567 100.097687,117.219113 103.119515,117.012906 C106.152371,116.806699 108.777171,119.095929 108.986714,122.126181" id="Fill-251" fill="#FFFFFF"></path>
                <path d="M103.005844,117.338876 C102.900659,117.338876 102.783787,117.342383 102.678603,117.350565 C101.439762,117.434727 100.306106,117.998146 99.4880043,118.936787 C98.6699021,119.874259 98.260851,121.075906 98.3426613,122.317297 C98.4361586,123.559857 98.997143,124.694876 99.9321169,125.513118 C100.867091,126.331361 102.07087,126.738144 103.30971,126.651644 C104.560238,126.566313 105.693894,126.002895 106.511996,125.065423 C107.330098,124.126782 107.727462,122.926303 107.645652,121.683743 C107.563841,120.441184 107.002857,119.306165 106.067883,118.487922 C105.203032,117.740984 104.127812,117.338876 103.005844,117.338876 Z M102.982469,129 C101.299516,129 99.6866862,128.396838 98.4010971,127.274677 C96.9869491,126.046145 96.1454726,124.341863 96.0169137,122.47627 C95.8883548,120.610677 96.4960878,118.808206 97.723241,117.39966 C98.9503943,115.991114 100.656722,115.144817 102.526669,115.017405 C104.38493,114.886486 106.184755,115.49783 107.598903,116.726363 C109.013051,117.956065 109.854527,119.660347 109.983086,121.524771 C110.111645,123.390363 109.503912,125.194004 108.276759,126.60255 C107.037919,128.011096 105.343278,128.856223 103.473331,128.983635 C103.30971,128.995324 103.14609,129 102.982469,129 L102.982469,129 Z" id="Fill-252" fill="#231F20"></path>
                <path d="M135.993246,151.933562 L135.993246,151.933562 C121.26912,152.929018 108.209664,142.63216 105.853335,128.170687 L101,98.4734959 C101,98.4734959 150.658758,82.1072667 154.351512,94.8654043 C157.305716,105.040013 155.73483,122.567026 153.941206,135.314685 C152.651673,144.373917 145.184102,151.311838 135.993246,151.933562" id="Fill-253" fill="#FFFFFF"></path>
                <path d="M133.130763,154 C118.443939,154.00116 106.112111,143.30636 104.012336,128.371238 C103.919528,127.736466 104.360365,127.150433 104.998418,127.061078 C105.624871,126.972883 106.21652,127.412697 106.309328,128.04863 C108.339497,142.460384 120.682925,152.58772 135.044922,151.612933 C143.53683,151.035024 150.555415,144.487708 151.738713,136.045361 L151.796718,135.629916 C152.7828,128.561553 154.279325,117.879517 153.420853,103.228708 C153.38605,102.589294 153.873291,102.040397 154.511344,102.002101 C155.172599,101.963806 155.706244,102.45352 155.741047,103.092934 C156.611119,117.974675 155.091393,128.792485 154.093709,135.952524 L154.035705,136.367968 C152.701593,145.890704 144.778133,153.275873 135.207336,153.929212 C134.511278,153.976791 133.81522,154 133.130763,154" id="Fill-254" fill="#231F20"></path>
                <path d="M142.432401,136 L142.253004,135.991285 L139.059743,135.659031 C138.401955,135.590401 137.935523,135.050079 138.007282,134.453111 C138.091001,133.855053 138.67703,133.423667 139.334818,133.494475 L141.36798,133.70581 L139.275019,125.33191 C139.131501,124.744746 139.526174,124.160849 140.172002,124.026858 C140.817831,123.895046 141.463659,124.26107 141.607176,124.847145 L143.963253,134.255937 C144.070891,134.704752 143.939333,135.179713 143.604459,135.52395 C143.305465,135.828971 142.874913,136 142.432401,136 L142.432401,136 Z" id="Fill-255" fill="#231F20"></path>
                <path d="M136.9175,141 C135.999493,141 135.21866,140.744859 134.564448,140.234577 C133.161059,139.145614 133.013334,137.357457 133.002782,137.157687 C132.960575,136.558377 133.40375,136.041581 133.984099,136.002496 C134.575,135.962325 135.060383,136.411807 135.10259,137.005688 C135.10259,137.036088 135.197556,138.01648 135.841216,138.511562 C136.27384,138.837274 136.906948,138.911102 137.729988,138.733046 C138.299785,138.611447 138.859031,138.98493 138.975101,139.570125 C139.101722,140.157492 138.732409,140.734002 138.162612,140.857773 C137.719436,140.952229 137.307916,141 136.9175,141" id="Fill-256" fill="#231F20"></path>
                <path d="M141.208491,119 C140.892497,119 140.564349,118.871199 140.321277,118.6148 C139.871593,118.129688 139.8959,117.374937 140.382045,116.922326 C140.515735,116.79834 143.724291,113.885263 148.196824,115.471807 C148.828812,115.695704 149.15696,116.38425 148.926041,117.0102 C148.707276,117.63615 148.002366,117.963571 147.370378,117.738469 C144.331972,116.657501 142.132166,118.601559 142.034937,118.683414 C141.804019,118.895274 141.512332,119 141.208491,119" id="Fill-257" fill="#231F20"></path>
                <path d="M124.218956,122 C123.913468,122 123.60798,121.890558 123.36359,121.669371 C122.887028,121.222388 122.874809,120.494314 123.35137,120.040419 C123.485785,119.916001 126.589544,117.007158 131.147427,118.35617 C131.782842,118.545101 132.149428,119.191382 131.941696,119.799647 C131.746183,120.40676 131.04967,120.743149 130.414255,120.554219 C127.261618,119.624541 125.110982,121.635963 125.098762,121.655547 C124.854372,121.88595 124.536664,122 124.218956,122" id="Fill-258" fill="#231F20"></path>
                <path d="M146.976181,121.696782 C147.09554,122.788303 146.754513,123.809078 146.217395,123.97656 C145.680276,124.144042 145.143158,123.396148 145.023798,122.304626 C144.904439,121.213105 145.245466,120.190886 145.79111,120.023404 C146.328229,119.855922 146.856821,120.60526 146.976181,121.696782" id="Fill-259" fill="#231F20"></path>
                <path d="M129.976181,125.696797 C130.09554,126.788328 129.754513,127.809112 129.217395,127.976596 C128.680276,128.144079 128.143158,127.394734 128.023798,126.303203 C127.904439,125.211672 128.245466,124.190888 128.79111,124.023404 C129.328229,123.855921 129.856821,124.605266 129.976181,125.696797" id="Fill-260" fill="#231F20"></path>
                <path d="M156.410723,74.1331266 C151.1166,73.4616647 146.088921,75.3736438 142.567228,78.8880548 C140.609446,76.3779275 137.701733,74.6114123 134.30747,74.1808388 C129.360882,73.5547616 124.738661,75.9252434 122.224822,79.8807013 C121.830948,79.796914 121.437075,79.7259276 121.043201,79.6747242 C115.077176,78.919475 109.528194,82.2244177 107.164953,87.443667 C100.550196,87.9754835 94.9780445,93.1039633 94.1092059,99.9849937 C93.7037479,103.266662 94.4335723,106.630954 96.1944185,109.430846 C97.8625885,112.092256 101.094668,113.379321 102.751253,116.031422 C104.882804,119.430625 105.751643,124.152969 107.454566,127.845428 C107.651503,128.263201 107.883193,128.71123 108.300236,128.904406 C109.308088,129.372218 110.188512,128.028131 110.385448,126.931914 C110.744568,125.007134 110.640308,123.027659 110.883582,121.087751 C111.126857,119.146679 111.798759,117.135784 113.327915,115.925524 C114.602211,114.920076 116.258797,114.612856 117.811122,114.127588 C119.664644,113.542241 121.471828,112.629891 122.804047,111.206671 C124.147851,109.782287 124.970352,107.79583 124.715492,105.854758 C124.970352,107.793503 130.901623,109.342404 132.558208,109.551872 C137.435289,110.169803 142.05751,108.300881 145.16216,104.930771 L145.359096,104.850474 C147.386386,106.148014 149.714874,107.02778 152.251882,107.348965 C161.380479,108.505695 169.709745,102.007526 170.868196,92.8351458 C172.015063,83.662766 165.550904,75.2898566 156.410723,74.1331266" id="Fill-261" fill="#414042"></path>
            </g>
        </g>
    </g>
</svg>